<?xml
    version="1.0"
    encoding="UTF-8"
    standalone="no"
?>
<!--
    Copyright (C) 2020 Peter Varo <hello@petervaro.com>
    This work is licensed under a Creative Commons Attribution-ShareAlike 4.0
    International License. (CC-BY-SA) For more information about the license
    visit <https://creativecommons.org/licenses/by-sa/4.0>
-->
<!DOCTYPE
    svg
    PUBLIC
    "-//W3C//DTD SVG 1.1//EN"
    "http://www.w3.org/Graphics/SVG/1.1/DTD/svg11.dtd"
>
<svg
    version="1.1"
    xmlns="http://www.w3.org/2000/svg"
    xmlns:xlink="http://www.w3.org/1999/xlink"
    xml:space="preserve"
    width="100%"
    height="100%"
    viewBox="0 0 143 43"
>
    <g id="logo">
        <path
            id="letter-b"
            style="fill:#000000"
            d="M 5 5 L 5 36.816406 L 10.248047 36.816406 L 10.248047 33.759766 C 12.699859 36.385988 14.97869 37.375 18.505859 37.375 C 25.216082 37.375 30.121094 31.908574 30.121094 24.71875 C 30.121094 17.528926 24.958407 12.103516 18.119141 12.103516 C 15.022114 12.103516 12.914429 12.964461 10.720703 15.160156 L 10.720703 5 L 5 5 z M 17.302734 17.355469 C 21.389088 17.355469 24.355469 20.499488 24.355469 24.761719 C 24.355469 29.110056 21.517995 32.123047 17.431641 32.123047 C 13.302274 32.123047 10.376953 29.067087 10.376953 24.71875 C 10.376953 20.413466 13.302409 17.355469 17.302734 17.355469 z "
        />
        <path
            id="letter-a"
            style="fill:#000000"
            d="M 44.632812 12.404297 C 37.578476 12.404297 32.503906 17.700632 32.503906 24.976562 C 32.503906 32.166387 37.535596 37.375 44.503906 37.375 C 47.859016 37.375 50.138213 36.299968 52.417969 33.716797 L 52.417969 36.816406 L 57.666016 36.816406 L 57.666016 12.964844 L 52.417969 12.964844 L 52.417969 16.150391 C 50.439313 13.524168 48.073952 12.404297 44.632812 12.404297 z M 45.234375 17.658203 C 49.320727 17.658203 52.246094 20.714164 52.246094 25.0625 C 52.246094 29.023361 49.666705 32.123047 45.322266 32.123047 C 41.14988 32.123047 38.267578 29.281594 38.267578 25.105469 C 38.267578 20.757132 41.148019 17.658203 45.234375 17.658203 z "
        />
        <path
            id="letter-c"
            style="fill:#000000"
            d="m 60.746459,24.890412 c 0,6.931507 5.677879,12.485321 12.732216,12.485321 5.548839,0 9.850265,-3.05675 11.828921,-8.395302 h -6.452138 c -1.419471,2.195695 -3.054015,3.142857 -5.419796,3.142857 -3.957313,0 -6.925294,-3.099804 -6.925294,-7.275929 0,-4.176126 2.838938,-7.189824 6.79625,-7.189824 2.580856,0 4.387456,1.076321 5.54884,3.272015 h 6.452138 c -1.849613,-5.46771 -6.581181,-8.524462 -12.000978,-8.524462 -7.054336,0 -12.560159,5.467711 -12.560159,12.485324 z"
        />
        <path
            id="letter-o"
            style="fill:#ff8080"
            d="M 87.642164,24.890412 C 87.642164,32.123288 93.603942,38 100.92066,38 c 7.27156,0 13.32367,-5.876712 13.32367,-12.928766 0,-7.458905 -5.82628,-13.290412 -13.36883,-13.290412 -7.271558,0 -13.233336,5.921918 -13.233336,13.10959 z"
        />
        <path
            id="left-nostril"
            style="fill:#000000"
            d="m 98.990804,24.890409 a 2.1980491,3.5639496 0 0 1 -2.198049,3.56395 2.1980491,3.5639496 0 0 1 -2.198049,-3.56395 2.1980491,3.5639496 0 0 1 2.198049,-3.563949 2.1980491,3.5639496 0 0 1 2.198049,3.563949 z"
        />
        <path
            id="right-nostril"
            style="fill:#000000;stroke-width:0.999998"
            d="m 107.29178,24.890409 a 2.1980491,3.5639496 0 0 1 -2.19805,3.56395 2.1980491,3.5639496 0 0 1 -2.19805,-3.56395 2.1980491,3.5639496 0 0 1 2.19805,-3.563949 2.1980491,3.5639496 0 0 1 2.19805,3.563949 z"
        />
        <path
            id="letter-n"
            style="fill:#000000"
            d="m 116.83699,36.816046 h 5.72089 V 25.579257 c 0,-3.18591 0.21509,-4.563601 0.94632,-5.726028 0.9033,-1.420743 2.4088,-2.195694 4.21539,-2.195694 2.83894,0 4.55951,1.119373 4.55951,7.491194 V 36.816046 H 138 V 24.029355 c 0,-4.262231 -0.43014,-6.328768 -1.72057,-8.18004 -1.54851,-2.238747 -4.12937,-3.444227 -7.44147,-3.444227 -2.70989,0 -4.60252,0.818004 -6.71022,2.841487 v -2.2818 h -5.29075 z"
        />
    </g>
</svg>
